<?xml version="1.0" encoding="UTF-8" standalone="no"?>
<svg
   xmlns:dc="http://purl.org/dc/elements/1.1/"
   xmlns:cc="http://creativecommons.org/ns#"
   xmlns:rdf="http://www.w3.org/1999/02/22-rdf-syntax-ns#"
   xmlns:svg="http://www.w3.org/2000/svg"
   xmlns="http://www.w3.org/2000/svg"
   xmlns:sodipodi="http://sodipodi.sourceforge.net/DTD/sodipodi-0.dtd"
   xmlns:inkscape="http://www.inkscape.org/namespaces/inkscape"
   class="icon"
   height="512"
   viewBox="0 0 1024 1024"
   version="1.1"
   id="svg6"
   sodipodi:docname="emptyAvatr.svg"
   inkscape:version="0.92.4 (5da689c313, 2019-01-14)">
  <metadata
     id="metadata12">
    <rdf:RDF>
      <cc:Work
         rdf:about="">
        <dc:format>image/svg+xml</dc:format>
        <dc:type
           rdf:resource="http://purl.org/dc/dcmitype/StillImage" />
      </cc:Work>
    </rdf:RDF>
  </metadata>
  <defs
     id="defs10" />
  <sodipodi:namedview
     pagecolor="#ffffff"
     bordercolor="#666666"
     borderopacity="1"
     objecttolerance="10"
     gridtolerance="10"
     guidetolerance="10"
     inkscape:pageopacity="0"
     inkscape:pageshadow="2"
     inkscape:window-width="1366"
     inkscape:window-height="705"
     id="namedview8"
     showgrid="false"
     inkscape:zoom="0.7421875"
     inkscape:cx="435.14955"
     inkscape:cy="374.03356"
     inkscape:window-x="-8"
     inkscape:window-y="-8"
     inkscape:window-maximized="1"
     inkscape:current-layer="svg6" />
  <path
     d="M460.8 390.3744m-179.1744 0a179.1744 179.1744 0 1 0 358.3488 0 179.1744 179.1744 0 1 0-358.3488 0Z"
     fill="#333232"
     id="path2"
     style="fill:#666666" />
  <path
     d="M460.8 0C206.3104 0 0 206.3104 0 460.8s206.3104 460.8 460.8 460.8 460.8-206.3104 460.8-460.8S715.2896 0 460.8 0z m320.5376 754.3808c-29.6192-73.2672-92.1344-144.9216-182.2976-144.9216-63.3856 0-80.6144 40.2944-144 40.2944-57.6 0-80.64-40.2944-144-40.2944-84.4032 0-146.7136 65.9456-176.4096 138.8544C66.9952 671.5392 25.6 571.1616 25.6 460.8 25.6 220.416 220.416 25.6 460.7744 25.6c240.384 0 435.2 194.816 435.2 435.2 0 113.3056-43.648 216.1408-114.6368 293.5808z"
     fill="#333232"
     id="path4"
     style="fill:#666666" />
</svg>
